<?xml version="1.0" encoding="utf-8"?>
<svg viewBox="0 0 150 50" xmlns="http://www.w3.org/2000/svg">
  <g fill="#5493e7" fill-rule="nonzero" transform="matrix(0.9999999999999999, 0, 0, 0.9999999999999999, 4.097146987915032, 4.059998989105225)">
    <path d="M124.145 8.84H114.02c-.462 0-.924.32-.924.88v16.56L102.803 9.6c-.21-.44-.798-.76-1.386-.76H91.166c-.462 0-.925.32-.925.88V41c0 .44.589.88 1.009.88h10.167c.462 0 .924-.32.924-.88V25.04l10.25 16.04c.337.48.799.76 1.387.76h10.125c.462 0 .924-.32.924-.88V9.72c0-.44-.336-.88-.882-.88zM135.656 10.44c-1.806 0-3.949-.4-6.302-1.56v32.08c0 .44.337.88.925.88H141.16c.042 0 .084-.04.126-.04.042 0 .084-.04.126-.08.042-.04.084-.04.084-.08l.042-.04.042-.04c.042-.04.042-.08.084-.08v-.04c.042-.04.042-.08.084-.12 0-.04.042-.08.042-.12V8.92c-2.185 1.12-4.327 1.52-6.134 1.52z"/>
    <path d="M141.118 5.32c0-3.2-2.185-5.32-5.462-5.32-3.319 0-5.461 2-5.461 5.32 0 3.8 10.755 3.84 10.923 0zM67.387 8.84c-10.25 0-18.527 7.4-18.527 16.48S57.178 41.8 67.387 41.8c10.209 0 18.527-7.4 18.527-16.48S77.638 8.84 67.387 8.84zm0 22.92c-3.487 0-6.302-2.88-6.302-6.4 0-3.52 2.815-6.4 6.302-6.4 3.487 0 6.302 2.88 6.302 6.4 0 3.52-2.815 6.4-6.302 6.4zM41.508 9.72c-.126-.44-.546-.88-1.135-.88H29.366c-.546 0-1.008.44-1.134.88 0 0-3.487 12.96-4.453 16.28-.126.48-.252.76-.252.76-.126 0-4.706-17.04-4.706-17.04-.126-.44-.546-.88-1.134-.88H6.722c-.546 0-1.008.44-1.134.88L.042 40.96c-.126.44.21.88.798.88h10.293c.546 0 1.008-.44 1.008-.88l1.639-16.68 5.377 16.68c.21.44.673.88 1.26.88h6.261c.546 0 1.008-.44 1.26-.88l5.377-16.68 1.639 16.68c0 .44.462.88 1.008.88h10.293c.546 0 .924-.44.798-.88L41.508 9.72z"/>
  </g>
</svg>